<?xml version="1.0" encoding="UTF-8"?>
<svg viewBox="-9.670547485351562 -17.853302001953125 500 500" xmlns="http://www.w3.org/2000/svg">
  <path d="m324.76 91.208c43.76-6.146 62.569 12.665 56.427 56.425l-13.134 93.522c-0.287 2.011-0.598 3.935-0.947 5.775-4.714 39.605-27.799 75.079-62.842 95.31-84.976 49.061-191.2-12.265-191.2-110.39 0-45.539 24.296-87.618 63.733-110.38 16.699-9.644 34.221-15.021 51.592-16.694 0.927-0.152 1.878-0.298 2.842-0.43zm-84.43 75.46c-36.107 0-65.378 29.271-65.378 65.378s29.271 65.377 65.378 65.377 65.377-29.27 65.377-65.377-29.27-65.378-65.377-65.378z" fill="#e83e3e"/>
  <path d="m490.06 232.78c0 0.128 0 0.258-2e-3 0.386-0.81 191.59-208.43 311.08-374.59 215.15-166.48-96.122-166.48-336.42 0-432.54 37.866-21.86 80.803-33.397 124.52-33.457h0.117 0.058 0.17c15.897 0.126 28.745 13.329 28.745 29.602 0 16.347-12.971 29.601-28.973 29.601-0.768 0-1.529-0.031-2.281-0.09-145.28 1.798-235.54 159.57-162.58 285.93 73.373 127.09 256.81 127.09 330.18 0 16.378-28.368 25.164-60.469 25.528-93.202-0.02-0.457-0.031-0.916-0.031-1.377 0-16.684 13.238-30.207 29.57-30.207 16.092 0 29.181 13.126 29.562 29.47h9e-3v0.549 0.188z" fill="#3e6eff"/>
</svg>
